<svg xmlns="http://www.w3.org/2000/svg" width="851" height="527.7" viewBox="0 0 851.034 527.71012" xmlns:xlink="http://www.w3.org/1999/xlink"><g><polygon points="697.5,504.6 688.6,502.6 694,461.8 707,464.8 697.5,504.6" fill="#ffb6b6"/><path d="M 662.5 515.2 h 0 c -0.4 1.5 0.4 3 1.7 3.3 l 17.5 4.5 s 3.5 -6.5 11.3 -7.6 l -2.1 10 l 9 2.3 l 3 -16.2 s 4.6 -7.9 0.7 -13.5 c -3.9 -5.6 0 -4 0 -4 l 0.6 -10.3 l -14 -1.9 l -4.1 15.4 l -10.6 13.6 l -10.9 2.3 c -1 0.2 -1.8 1 -2.1 2.1 h 0 Z" fill="#2f2e41"/></g><g><polygon points="782.3,495 774.2,499.2 751.8,464.7 763.7,458.6 782.3,495" fill="#ffb6b6"/><path d="M 762.6 525.7 h 0 c 0.7 1.4 2.2 2 3.4 1.4 l 16.2 -7.9 s -1.5 -7.2 3.6 -13.1 l 4.9 8.9 l 8.4 -4.1 l -8.2 -14.2 s -1.6 -9 -8.2 -10.7 c -6.6 -1.8 -2.6 -3 -2.6 -3 l -6.3 -8.2 l -11.9 7.7 l 6.9 14.4 l 0.8 17.2 l -6.8 8.8 c -0.6 0.8 -0.7 1.9 -0.2 2.9 l 0 0 Z" fill="#2f2e41"/></g><path id="b-690" d="M 309 343.6 h 234.5 c 3 0 5.3 -2.4 5.3 -5.3 V 6.3 c 0 -3 -2.4 -5.3 -5.3 -5.3 h -234.5 c -3 0 -5.3 2.4 -5.3 5.3 V 338.2 c 0 3 2.4 5.3 5.3 5.3 Z" fill="#ffffff"/><path d="M 549.9 344.6 h -247.2 V 0 h 247.2 V 344.6 Z m -245.2 -2 h 243.2 V 2 h -243.2 V 342.6 Z" fill="#e6e6e6"/><path id="c-691" d="M 494.4 55.2 c 1 0 1.7 0.8 1.7 1.7 h 0 v 3.4 c 0 1 -0.8 1.7 -1.7 1.7 h -136.1 c -1 0 -1.7 -0.8 -1.7 -1.7 v -3.4 c 0 -1 0.8 -1.7 1.7 -1.7 h 136.1" fill="#e6e6e6"/><path id="d-692" d="M 494.4 71.6 c 1 0 1.7 0.8 1.7 1.7 h 0 v 3.4 c 0 1 -0.8 1.7 -1.7 1.7 h -136.1 c -1 0 -1.7 -0.8 -1.7 -1.7 v -3.4 c 0 -1 0.8 -1.7 1.7 -1.7 h 136.1" fill="#e6e6e6"/><path id="e-693" d="M 494.4 87.9 c 1 0 1.7 0.8 1.7 1.7 h 0 v 3.4 c 0 1 -0.8 1.7 -1.7 1.7 h -136.1 c -1 0 -1.7 -0.8 -1.7 -1.7 v -3.4 c 0 -1 0.8 -1.7 1.7 -1.7 h 136.1" fill="#6c63ff"/><path id="f-694" d="M 744.9 130.9 h 45.2 c -0.1 -2.1 0.4 -4.2 1.3 -6.1 c 0 2.1 0.5 4.2 1.4 6.1 h 2.1 c 3.1 0 5.7 -2.5 5.7 -5.7 v -29.4 c 0 -14.4 -12.3 -35.9 -25.7 -26.9 c -0.4 0 -7.2 -3 -7.6 -3 c -11.8 0 -15.8 10.6 -19.3 21.8 c -4 -1.9 -6.8 5.9 -8.8 19.6 c -0.6 4 -1.1 8.5 -1.6 13.4 c -1.3 4.1 1 8.5 5.1 9.8 c 0.8 0.2 1.5 0.4 2.3 0.4 l 0 0 Z" fill="#2f2e41"/><path id="g-695" d="M 656.2 298.8 c -2.2 5.3 -1.3 10.8 2.1 12.2 s 7.9 -1.7 10.2 -7 c 0.9 -2.1 1.3 -4.4 1.2 -6.7 l 9.2 -22.6 l -10.7 -4.1 l -7.9 22.7 c -1.7 1.5 -3.1 3.4 -4 5.5 l 0 0 Z" fill="#ffb6b6"/><path id="h-696" d="M 755.2 120.9 l 21.6 4.5 l -3.3 9.9 l 6.6 76 l -11 24.5 l -67.4 -5.5 l 16.6 -33.1 s -6.6 -27.6 2.2 -33.1 c 8.8 -5.5 23.2 -33.1 23.2 -33.1 l 11.5 -10 Z" fill="#6c63ff"/><path id="i-697" d="M 775.4 129.8 l 19.1 7.8 l -6.6 97.2 l 14.4 84 l -46.4 7.7 s 5.5 -185.6 8.8 -188.9 s 10.7 -7.8 10.7 -7.8 v 0 Z" fill="#2f2e41"/><path id="j-698" d="M 737.9 142 s -12.5 -7.9 -19.2 -2 s -58.5 146.9 -58.5 146.9 l 14 6.1 l 32.1 -67.2 l 31.7 -83.7 Z" fill="#2f2e41"/><path id="k-699" d="M 702.2 379.6 l -12.6 97.1 l 17.7 1.1 s 9.2 -25.1 19.7 -54.6 c 2.2 -6.3 4.5 -12.7 6.8 -19.2 c 2.5 -7 4.9 -14.1 7.2 -20.8 c 5.7 -16.7 10.8 -32 13.6 -41.9 c 0.5 -1.7 0.9 -3.3 1.3 -4.7 c 7.7 -29.7 12.2 -107.3 12.2 -107.3 l -64.1 -5.5 l -0.7 0.9 l -13.7 17.1 l 0.6 3.6 l 17 95.6 l -5 38.7 l 0 0 Z" fill="#2f2e41"/><path id="l-700" d="M 707.2 340.9 l -5 38.7 l 22.7 39.9 l 2.1 3.7 l 31.2 56.7 l 15.4 -8.7 s -20.1 -46.1 -32.6 -88 c -1.4 -4.6 -2.7 -9.2 -3.8 -13.6 c -3.4 -13 2.2 -36.7 0 -43.3 c -7.4 -22.1 -31.5 -66.2 -42.7 -86.2 l -4.2 5.2 l 17 95.6 Z" fill="#2f2e41"/><path id="m-701" d="M 744 130.1 l -22.4 8.6 l -58.6 171.2 l 35.4 5.5 l 16.6 -99.4 l 29 -85.9 Z" fill="#2f2e41"/><path id="n-702" d="M 799.9 315 c 0.6 5.7 4 10.1 7.6 9.7 c 3.7 -0.4 6.2 -5.3 5.6 -11 c -0.2 -2.3 -0.9 -4.5 -2.2 -6.5 l -2.7 -24.3 l -11.4 1.5 l 3.9 23.8 c -0.8 2.2 -1.1 4.5 -0.9 6.8 Z" fill="#ffb6b6"/><path id="o-703" d="M 786.8 137.6 s 14.4 -3.3 18.8 4.4 c 4.4 7.7 6.6 158 6.6 158 l -15.2 1.1 l -8 -74 l -2.2 -89.5 l 0 0 Z" fill="#2f2e41"/><circle id="p" cx="768.4" cy="95.3" r="23" fill="#ffb6b6"/><path id="q-704" d="M 777.6 130.9 h 11.3 c 0.6 0 1.1 -0.4 1.1 -1 l 0 -0.1 c 0.1 -1.2 1.7 -1.4 2.1 -0.3 c 0.2 0.5 0.3 0.9 0.5 1.3 h 1.1 v -35.4 c 0 -6.1 -4.9 -11 -11 -11 h 0 c -5.2 0 -9.7 3.6 -10.8 8.7 c 0 0 -7.7 9.5 -3.2 14.8 s -2.1 9.6 -2.1 9.6 c -1.5 6.8 3.8 13.3 10.8 13.3 Z" fill="#2f2e41"/><path id="r-705" d="M 401.6 172.1 c 2.5 -1.6 3.1 -5.2 1.3 -7.6 l -8.3 -11.5 c -1.9 -2.7 -5.7 -3.3 -8.4 -1.3 c -0.2 0.2 -0.5 0.4 -0.7 0.6 c -14.1 7.5 -21.7 18.6 -13.3 31.6 c 0 2.2 0.2 4.3 0.5 6.5 c 0.1 0.9 0.5 1.8 1 2.6 c 1.6 2.3 4.4 3.2 6.8 2.4 l 13.6 -4.4 c 2.9 -0.9 4.5 -4.1 3.4 -7 c -1.4 -3.7 -0.8 -8.7 4 -11.9 Z" fill="#f2f2f2"/><path id="s-706" d="M 434 206 c -3.9 -0.4 -7.3 2.8 -7.3 6.8 v 11.8 c 0 0.3 0 0.6 0.1 0.9 c 0.5 3.3 3.6 5.5 6.8 5 c 19.1 2.4 32.2 -6 33 -24.2 c 0.1 -0.3 0.2 -0.5 0.3 -0.8 c 1 -3.2 -0.7 -6.5 -3.9 -7.6 l -11.4 -3.7 c -3.9 -1.3 -8 1.3 -8.7 5.4 c -0.6 3.7 -3.1 7 -8.9 6.4 Z" fill="#e6e6e6"/><path id="t-707" d="M 363.4 217.5 c 4 23.5 24.6 32.5 46.1 33.9 c 0.4 0.1 0.8 0.1 1.3 0.1 c 4.6 0 8.4 -3.8 8.4 -8.4 v -19.7 c 0 -5.5 -4.5 -9.8 -10 -9.8 c -5.3 -0.1 -8.8 -2.6 -10.2 -7.2 c -1.6 -5.3 -7.4 -8.1 -12.7 -6.4 l -18 5.8 c -2.3 0.8 -4.2 2.5 -5.2 4.7 c -0.9 2.2 -0.9 4.8 0.2 6.9 Z" fill="#3f3d56"/><path id="u-708" d="M 474 136.1 c -3.3 -3.2 -8.6 -3.2 -11.9 0.1 c -0.3 0.3 -0.6 0.6 -0.8 0.9 l -16 22 c -2 2.8 -0.9 6.7 2.3 8.1 c 7.5 3.2 6.7 10.4 4.3 14.8 c -1.2 2.2 -0.2 4.9 2.1 5.6 l 26.9 8.7 c 4.4 1.4 9.2 -1 10.6 -5.4 c 0.1 -0.4 0.3 -0.9 0.3 -1.4 c 0.5 -3.1 0.7 -6.2 0.7 -9.3 c 4.5 -17 -1.7 -33 -18.6 -44.2 Z" fill="#6c63ff"/><path id="v-709" d="M 427.8 161.6 c 3 1.7 6.7 0.9 8.7 -1.9 l 5.3 -7.4 c 1 -1.4 1.4 -3.2 1 -5 c -0.4 -1.7 -1.5 -3.1 -3.1 -3.9 c -12.6 -11.4 -27.5 -12.1 -40.1 -0.1 c -1.6 0.8 -2.7 2.3 -3.2 4 c -0.4 1.7 -0.1 3.5 1 4.9 l 6.2 8.6 c 2.1 3 6.3 3.7 9.3 1.6 c 4.3 -3.1 10.5 -3.3 14.7 -0.9 Z" fill="#e6e6e6"/><rect id="w" y="526" width="851" height="1.7" fill="#e6e6e6"/><path id="x-710" d="M 357.4 309.8 c 0.5 -2 2.7 -2.7 4.6 -2.6 c 1.2 0.1 2.3 0.3 3.5 0.5 c 1.2 0.3 2.4 0.6 3.5 0.9 c 2.1 0.6 4.3 1.3 6.4 1.8 c 1.8 0.5 3.7 0.5 5.6 0.1 c 1.8 -0.5 3.2 -1.9 3.7 -3.6 c 0.5 -1.7 -0.2 -3.5 -1.8 -4.3 c -1.5 -0.8 -3.3 -0.3 -4.1 1.2 c 0 0 0 0 0 0.1 c -0.7 1.8 -0.1 3.8 1.3 5 c 0.7 0.7 1.6 1.3 2.4 1.9 c 0.9 0.6 1.9 1.1 2.9 1.3 c 1.8 0.5 3.7 -0.3 4.7 -1.8 c 0.2 -0.4 0.3 -0.8 0.3 -1.2 c 0.1 -0.6 -0.8 -0.6 -0.9 0 c -0.1 1.6 -2.1 2.4 -3.5 2.2 c -1 -0.2 -1.9 -0.5 -2.7 -1.1 c -0.8 -0.5 -1.5 -1 -2.2 -1.6 c -1.2 -1.1 -2.4 -2.8 -1.5 -4.4 c 0.6 -1.1 2 -1.4 3.1 -0.8 c 0.1 0.1 0.3 0.2 0.4 0.3 c 1.3 1 1 2.9 0.2 4.2 c -1 1.3 -2.6 2 -4.2 2 c -1.7 0 -3.5 -0.3 -5.1 -0.8 c -2.1 -0.6 -4.1 -1.2 -6.2 -1.8 c -1.2 -0.3 -2.4 -0.6 -3.5 -0.8 c -1.1 -0.2 -2.3 -0.3 -3.4 -0.2 c -1.9 0.1 -3.6 1.4 -4.2 3.2 c -0.1 0.6 0.7 0.8 0.9 0.2 Z" fill="#3f3d56"/><path id="y-711" d="M 392.7 286.5 c 0.3 0 0.5 0.8 0.5 1.7 v 3.4 c 0 1 -0.2 1.7 -0.5 1.7 h -38.5 c -0.3 0 -0.5 -0.8 -0.5 -1.7 v -3.4 c 0 -1 0.2 -1.7 0.5 -1.7 h 38.5" fill="#e6e6e6"/><path id="a`-712" d="M 495.6 286.5 c 0.3 0 0.5 0.8 0.5 1.7 v 3.4 c 0 1 -0.2 1.7 -0.5 1.7 h -38.5 c -0.3 0 -0.5 -0.8 -0.5 -1.7 v -3.4 c 0 -1 0.2 -1.7 0.5 -1.7 h 38.5" fill="#e6e6e6"/><path id="aa-713" d="M 478.5 306 l -7.6 2.5 l -3.8 1.3 c -1.2 0.5 -2.4 0.7 -3.7 0.7 c -0.9 -0.1 -1.8 -0.6 -2.1 -1.5 c -0.2 -0.9 0.2 -1.8 0.9 -2.2 c 1.8 -1.4 4.1 0 5.4 1.5 c 1.6 1.8 2.5 4 4 5.9 c 1.3 1.6 3 3 4.9 3.9 c 3.8 1.9 8.3 1.5 11.8 -1 c 4 -3.1 4.4 -8.5 4.5 -13.2 c 0 -0.5 -0.4 -0.8 -0.8 -0.8 c -0.4 0 -0.8 0.4 -0.8 0.8 c 0 4.3 -0.3 9.5 -4.1 12.1 c -3.7 2.6 -8.6 1.9 -12 -0.8 c -1.8 -1.6 -3.2 -3.4 -4.3 -5.5 c -1.2 -2 -2.7 -3.9 -5 -4.7 c -2 -0.7 -4.3 0.1 -5.4 1.9 c -1 1.6 -0.4 3.8 1.2 4.7 c 0.1 0.1 0.3 0.1 0.4 0.2 c 2.7 1.3 5.7 -0.2 8.3 -1.1 l 9 -3 c 1 -0.3 0.6 -1.9 -0.4 -1.6 l 0 0 Z" fill="#6c63ff"/><path d="M 139.1 496 c -0.1 -0.1 -0.2 -0.1 -0.2 -0.1 c -1.2 0 -2.4 0.7 -3 1.7 l -13.4 24.9 c -0.3 0.5 -0.5 1.1 -0.5 1.7 s 0.2 1.2 0.5 1.7 c 0.6 1.1 30.3 1.5 30.3 1.5 c 1.2 0 4.7 -15.3 -13.7 -31.4 Z" fill="#e6e6e6"/><g><polygon points="87.9,521.4 98.1,521.3 102.6,482 87.5,482.1 87.9,521.4" fill="#ffb6b6"/><path d="M 122.8 520.9 h 0 c 0.3 0.5 0.5 2.3 0.5 2.9 h 0 c 0 1.9 -1.5 3.5 -3.4 3.5 l -31.5 0.3 c -1.3 0 -2.4 -1 -2.4 -2.3 l 0 -1.3 s -1.6 -3.9 1.6 -8.8 c 0 0 4 3.8 9.9 -2.2 l 1.7 -3.2 l 12.8 9.2 l 7.1 0.8 c 1.5 0.2 2.9 -0.1 3.7 1.3 h 0 Z" fill="#2f2e41"/></g><g><polygon points="126.6,487.5 136.3,490.6 153.1,454.8 138.9,450.1 126.6,487.5" fill="#ffb6b6"/><path d="M 159.8 498.1 h 0 c 0.1 0.6 -0.2 2.3 -0.4 2.9 h 0 c -0.6 1.8 -2.5 2.8 -4.4 2.2 l -30 -9.8 c -1.2 -0.4 -1.9 -1.7 -1.5 -3 l 0.4 -1.2 s -0.3 -4.2 4.3 -7.9 c 0 0 2.6 4.9 10.1 1.1 l 2.7 -2.5 l 9.2 12.8 l 6.4 3 c 1.4 0.7 2.8 0.9 3.1 2.4 l 0 0 Z" fill="#2f2e41"/></g><polygon points="140.3,259.5 160.6,324.7 184.5,383.3 148.3,467.7 128.2,459.9 146.2,386.9 115.4,332.3 100.9,496 83.2,493.9 60.2,297.9 63.8,255.2 140.3,259.5" fill="#2f2e41"/><path id="ab-714" d="M 119.5 111 l -22 -5.3 l -6.1 14.4 s -29.7 5 -31.2 27.8 c 0 0 -5.9 29.8 -2.1 38.2 s 13.1 37.8 13.1 37.8 c 0 0 -14.8 36.7 -11 39 s 85 10.5 85 6 s 0.9 -58.6 0.9 -58.6 l -3.2 -81.8 l -20.5 -7.6 l -3 -9.9 h 0 v 0 Z" fill="#e6e6e6"/><circle cx="115.7" cy="85.2" r="22.1" fill="#ffb6b6"/><path d="M 101.1 88.5 c 1.8 1 0.1 5.6 1.2 6 c 1.3 0.5 5.9 -4.8 6 -10.8 c 0 -1.8 -0.4 -2.7 0 -4.8 c 0.5 -2.8 2.1 -6.1 3.6 -6 c 0.9 0.1 1.7 1.3 1.8 2.4 c 0.1 1.5 -1.4 2.2 -1.2 3 c 0.4 1.6 6.7 2.7 9 0 c 1.8 -2.1 0.4 -5.8 1.2 -6 c 0.6 -0.1 1.2 1.9 3.6 4.2 c 0.9 0.9 2.2 2.2 3 1.8 c 1.1 -0.5 0.3 -4.1 0.6 -4.2 c 0.2 0 0.4 2.5 1.8 4.8 c 1.8 2.9 5.5 5.2 7.2 4.2 c 1.1 -0.6 1.1 -2.3 1.2 -3.6 c 0.1 -2.7 4.1 -9 3.1 -11.9 c -2.1 -5.9 -5.6 -1.7 -7.2 -3.7 c -2.2 -2.7 -4.1 -1.2 -7.8 -4.2 c -3.6 -2.9 -3.6 -5.8 -6 -6 c -2.2 -0.2 -2.9 2.1 -5.4 1.8 c -2.1 -0.3 -2.6 -2.1 -4.2 -1.8 c -1.5 0.2 -1.6 1.8 -3.6 2.4 c -1.3 0.4 -1.6 -0.2 -3 0 c -3 0.3 -5 3.1 -5.4 3.6 c -1.5 2 -0.9 2.8 -2.4 4.8 c -1.3 1.7 -4.2 1 -5.3 1.8 c -3.5 2.8 -5.1 7.9 -5.1 13.8 c 0 4.1 0.5 6.2 1.7 11.4 c 0.9 3.9 5.1 9 7.4 11.3 c 0.6 0.6 2.4 2.3 3.6 1.8 c 1.2 -0.5 1.2 -2.7 1.2 -3 c 0 -1 -0.3 -2.2 -2.4 -5.4 c -2.2 -3.3 -3.1 -3.7 -3 -4.8 c 0.2 -2 3.4 -3.8 4.8 -3 Z" fill="#2f2e41"/><g><path d="M 38.4 309.4 c -0.8 6.4 1.9 12.1 6 12.5 c 4.1 0.5 8 -4.3 8.8 -10.8 c 0.3 -2.8 0 -5.5 -0.8 -7.6 l 2.9 -27.3 l -12.9 -1.1 l -1.5 27.1 c -1.3 1.9 -2.2 4.4 -2.6 7.2 Z" fill="#ffb6b6"/><path d="M 75.5 127.9 s -6.7 0.1 -11.1 8.7 c -2.3 4.6 -17.6 86.6 -17.6 86.6 l -4.3 25.9 l 2.2 4.3 c -3.5 5.4 -4.5 12 -2.6 18.1 h 0 l -4.2 25.3 l 19.7 0.1 l 15.4 -66.4 l 12.9 -38.5 l -10.4 -64.2 Z" fill="#e6e6e6"/></g><g><path d="M 176 308.4 c 0.8 6.4 -1.9 12.1 -6 12.5 c -4.1 0.5 -8 -4.3 -8.8 -10.8 c -0.3 -2.8 0 -5.5 0.8 -7.6 l -2.9 -27.3 l 12.9 -1.1 l 1.5 27.1 c 1.3 1.9 2.2 4.4 2.6 7.2 Z" fill="#ffb6b6"/><path d="M 138.9 126.9 s 6.7 0.1 11.1 8.7 c 2.3 4.6 17.6 86.6 17.6 86.6 l 4.3 25.9 l -2.2 4.3 c 3.5 5.4 4.5 12 2.6 18.1 h 0 l 4.2 25.3 l -19.7 0.1 l -15.4 -66.4 l -12.9 -38.5 l 10.4 -64.2 Z" fill="#e6e6e6"/></g><path d="M 740.8 91.9 c 0.8 1.3 5.2 -3.6 11.8 -4.1 c 1.7 -0.1 5.5 6.3 9.9 6.4 c 2.9 0.1 4.7 0 8.3 0 c 4.2 0 5.4 -0.1 6.2 -1.2 c 1.6 -2 0.3 -5.6 1 -5.9 c 0.6 -0.2 2.3 2 3.1 4.7 c 1.8 5.7 -4.5 13.7 -5.2 21.1 c -0.7 8 5.8 -7.3 5.2 0 c -0.8 8.2 -3.5 7.6 -3.5 10.6 c 0 0.4 0.1 0.8 0.4 1.2 c 0.2 0.3 0.4 0.4 4.1 1.2 c 4.4 0.9 6.6 1.3 7.2 1.2 c 1.5 -0.4 3.1 -2.9 4.1 -4.7 c 1.8 -2.9 0.5 0 0 -3.5 c -0.5 -3.4 -2 -3.9 -2.1 -7 c 0 -4 2.4 -5.2 4.1 -9.4 c 3.2 -7.7 0.1 -16.7 -1 -19.9 c -0.5 -1.6 -1.5 -3.5 -3.2 -6.8 c -1.4 -2.6 -3.2 -4.9 -5.3 -6.6 c -3.3 -2.6 -7.1 -4.3 -11.2 -5 c -2.3 -0.4 -4.6 -0.2 -6.8 0.4 l -5.8 1.6 c -2.4 0.7 -4.7 1.9 -6.7 3.5 h 0 c -1.9 0 -3.5 1.4 -4.1 3.4 c -0.1 0.2 -0.1 0.3 -0.2 0.3 c -10.4 -3.7 -10.4 7.2 -10.3 14 c 0 0.7 0 1.3 -0.1 1.8 v 0 c -0.2 1.3 -0.3 2.3 0 2.7 Z" fill="#2f2e41"/><rect x="496.5" y="152.1" width="109.3" height="2" fill="#3f3d56"/><path d="M 627.9 166.1 c -7.7 0 -14 -6.3 -14 -14 s 6.3 -14 14 -14 s 14 6.3 14 14 s -6.3 14 -14 14 Z m 0 -26 c -6.6 0 -12 5.4 -12 12 s 5.4 12 12 12 s 12 -5.4 12 -12 s -5.4 -12 -12 -12 Z" fill="#3f3d56"/><circle cx="627.9" cy="152.1" r="7" fill="#6c63ff"/><rect x="246.9" y="226.1" width="109.3" height="2" fill="#3f3d56"/><path d="M 210.9 226.1 c 0 -7.7 6.3 -14 14 -14 s 14 6.3 14 14 s -6.3 14 -14 14 s -14 -6.3 -14 -14 Z m 2 0 c 0 6.6 5.4 12 12 12 s 12 -5.4 12 -12 c 0 -6.6 -5.4 -12 -12 -12 s -12 5.4 -12 12 Z" fill="#3f3d56"/><circle cx="224.9" cy="226.1" r="7" fill="#6c63ff"/></svg>